<svg width="25" height="24" viewBox="0 0 25 24" fill="none" xmlns="http://www.w3.org/2000/svg">
<path d="M7.2275 13.8015L10.7797 9.97469L3.01008 1.61801C2.40759 0.96895 1.36579 1.14474 0.989231 1.98311C0.0980497 3.99791 0.424398 6.47246 1.96827 8.1492L7.2275 13.8015ZM15.7377 11.3539C17.6581 12.314 20.3567 11.6379 22.3525 9.48789C24.7499 6.90517 25.2143 3.2001 23.3692 1.21235C21.5366 -0.761882 18.0974 -0.275086 15.6874 2.30764C13.6917 4.45766 13.0641 7.36492 13.9553 9.43381L2.58332 21.6849C2.34862 21.9377 2.21678 22.2806 2.21678 22.6382C2.21678 22.9957 2.34862 23.3386 2.58332 23.5915C2.81801 23.8443 3.13632 23.9864 3.46822 23.9864C3.80012 23.9864 4.11843 23.8443 4.35313 23.5915L12.1227 15.2483L19.8798 23.605C19.996 23.7302 20.1339 23.8295 20.2858 23.8973C20.4376 23.965 20.6003 23.9999 20.7647 23.9999C20.929 23.9999 21.0917 23.965 21.2436 23.8973C21.3954 23.8295 21.5334 23.7302 21.6496 23.605C21.7658 23.4798 21.858 23.3312 21.9209 23.1676C21.9837 23.0041 22.0161 22.8287 22.0161 22.6517C22.0161 22.4746 21.9837 22.2993 21.9209 22.1358C21.858 21.9722 21.7658 21.8236 21.6496 21.6984L13.8925 13.3417L15.7377 11.3539Z" fill="#02E4C0"/>
</svg>
