<svg width="31" height="30" viewBox="0 0 31 30" fill="none" xmlns="http://www.w3.org/2000/svg">
<path d="M12.803 13.6089C14.129 15.7409 13.934 18.2499 12.348 19.2639C10.762 20.2519 8.396 19.3289 7.057 17.1969C5.731 15.0649 5.939 12.5299 7.525 11.5419C9.111 10.5539 11.477 11.4769 12.803 13.6089ZM15 22.4749C17.6 22.4749 18.25 21.4999 18.25 21.4999C18.25 21.4999 17.6 24.0999 15 24.0999C12.4 24.0999 11.75 21.5389 11.75 21.4999C11.75 21.4999 12.4 22.4749 15 22.4749ZM22.475 11.5419C24.061 12.5299 24.269 15.0649 22.943 17.1969C21.604 19.3289 19.238 20.2519 17.652 19.2639C16.066 18.2499 15.871 15.7409 17.197 13.6089C18.523 11.4769 20.889 10.5539 22.475 11.5419ZM15 25.3999C18.25 25.3999 25.4 18.7179 25.4 13.6999C25.4 8.68188 20.733 4.59988 15 4.59988C9.267 4.59988 4.6 8.68188 4.6 13.6999C4.6 18.7179 11.75 25.3999 15 25.3999ZM15 1.99988C22.15 1.99988 28 7.25188 28 13.6999C28 19.0039 20.616 27.9999 15 27.9999C9.384 27.9999 2 19.0039 2 13.6999C2 7.25188 7.85 1.99988 15 1.99988Z" fill="#02E4C0"/>
</svg>
