<svg width="513" height="511" viewBox="0 0 513 511" fill="none" xmlns="http://www.w3.org/2000/svg">
<path fill-rule="evenodd" clip-rule="evenodd" d="M255.002 507.229C395.422 507.229 509.254 393.849 509.254 253.989C509.254 114.129 395.422 0.75 255.002 0.75C114.583 0.75 0.75 114.129 0.75 253.989C0.75 393.849 114.583 507.229 255.002 507.229ZM255.002 439.698C357.976 439.698 441.454 356.553 441.454 253.989C441.454 151.425 357.976 68.2805 255.002 68.2805C152.028 68.2805 68.5506 151.425 68.5506 253.989C68.5506 356.553 152.028 439.698 255.002 439.698Z" fill="#2196F3"/>
<path d="M270.363 269.286L512.426 419.92L421.599 510.384L270.363 269.286Z" fill="#5AFBE2"/>
<path fill-rule="evenodd" clip-rule="evenodd" d="M468.025 392.29L410.502 356.494C396.676 377.26 378.769 395.096 357.92 408.868L393.859 466.162C423.42 446.929 448.716 421.734 468.025 392.29Z" fill="white"/>
</svg>
