<svg width="1076" height="330" viewBox="0 0 1076 330" fill="none" xmlns="http://www.w3.org/2000/svg">
<path d="M138.694 167.134C146.186 171.496 149.931 179.224 149.931 190.319V195.155C149.931 203.88 147.608 210.518 142.961 215.069C138.41 219.621 131.772 221.897 123.048 221.897H84.0735C82.177 221.897 80.7071 221.375 79.664 220.332C78.6209 219.289 78.0994 217.819 78.0994 215.923V131.431C78.0994 129.535 78.6209 128.065 79.664 127.022C80.7071 125.979 82.177 125.457 84.0735 125.457H121.199C128.69 125.457 134.474 127.449 138.552 131.431C142.63 135.414 144.668 141.104 144.668 148.5V152.341C144.668 155.375 144.147 158.173 143.104 160.733C142.061 163.293 140.591 165.427 138.694 167.134ZM90.0476 163.72H123.048H125.608C128.074 163.436 129.875 162.298 131.013 160.306C132.151 158.22 132.72 155.565 132.72 152.341V148.5C132.72 144.423 131.867 141.578 130.16 139.966C128.453 138.259 125.466 137.405 121.199 137.405H90.0476V163.72ZM137.983 190.319C137.983 185.009 136.845 181.263 134.569 179.082C132.293 176.806 128.453 175.668 123.048 175.668H90.0476V209.949H123.048C128.358 209.949 132.151 208.811 134.427 206.535C136.798 204.259 137.983 200.466 137.983 195.155V190.319Z" fill="white"/>
<path d="M248.483 213.505C248.863 214.358 249.052 215.306 249.052 216.349C249.052 218.625 247.772 220.285 245.212 221.328C244.358 221.707 243.41 221.897 242.367 221.897C240.091 221.897 238.432 220.617 237.389 218.056L229.708 199.423H185.471L178.074 218.056C177.031 220.617 175.371 221.897 173.095 221.897C172.147 221.897 171.246 221.707 170.393 221.328C167.738 220.38 166.41 218.72 166.41 216.349C166.41 215.306 166.6 214.358 166.979 213.505L200.833 130.151C202.255 127.022 204.483 125.457 207.518 125.457H207.802C210.932 125.647 213.018 127.211 214.061 130.151L248.483 213.505ZM190.164 187.474H224.871L207.091 144.375L190.164 187.474Z" fill="white"/>
<path d="M288.302 221.897C284.319 221.897 282.328 219.905 282.328 215.923V137.548H254.733C250.75 137.548 248.759 135.556 248.759 131.574C248.759 127.591 250.75 125.599 254.733 125.599H321.871C325.854 125.599 327.845 127.591 327.845 131.574C327.845 135.556 325.854 137.548 321.871 137.548H294.276V215.923C294.276 217.819 293.755 219.289 292.712 220.332C291.669 221.375 290.199 221.897 288.302 221.897Z" fill="white"/>
<path d="M376.813 221.897C372.83 221.897 370.839 219.905 370.839 215.923V137.548H343.244C339.261 137.548 337.27 135.556 337.27 131.574C337.27 127.591 339.261 125.599 343.244 125.599H410.382C414.365 125.599 416.356 127.591 416.356 131.574C416.356 135.556 414.365 137.548 410.382 137.548H382.787V215.923C382.787 217.819 382.266 219.289 381.222 220.332C380.179 221.375 378.709 221.897 376.813 221.897Z" fill="white"/>
<path d="M442.423 221.897C438.44 221.897 436.449 219.905 436.449 215.923V131.431C436.449 127.449 438.44 125.457 442.423 125.457C446.406 125.457 448.397 127.449 448.397 131.431V209.949H487.798C491.781 209.949 493.772 211.94 493.772 215.923C493.772 219.905 491.781 221.897 487.798 221.897H442.423Z" fill="white"/>
<path d="M571.58 209.949C573.477 209.949 574.947 210.47 575.99 211.513C577.033 212.556 577.554 214.026 577.554 215.923C577.554 217.819 577.033 219.289 575.99 220.332C574.947 221.375 573.477 221.897 571.58 221.897H520.516C518.619 221.897 517.149 221.375 516.106 220.332C515.063 219.289 514.542 217.819 514.542 215.923V131.431C514.542 129.535 515.063 128.065 516.106 127.022C517.149 125.979 518.619 125.457 520.516 125.457H571.58C573.477 125.457 574.947 125.979 575.99 127.022C577.033 128.065 577.554 129.535 577.554 131.431C577.554 133.328 577.033 134.798 575.99 135.841C574.947 136.884 573.477 137.405 571.58 137.405H526.49V167.276H554.796C556.692 167.276 558.162 167.798 559.205 168.841C560.248 169.884 560.77 171.354 560.77 173.25C560.77 175.147 560.248 176.617 559.205 177.66C558.162 178.703 556.692 179.224 554.796 179.224H526.49V209.949H571.58Z" fill="white"/>
<path d="M653.226 221.897C649.243 221.897 647.252 219.905 647.252 215.923V131.431C647.252 127.449 649.243 125.457 653.226 125.457C657.208 125.457 659.2 127.449 659.2 131.431V209.949H698.601C702.583 209.949 704.575 211.94 704.575 215.923C704.575 219.905 702.583 221.897 698.601 221.897H653.226Z" fill="white"/>
<path d="M893.334 125.457C895.23 125.457 896.7 125.979 897.743 127.022C898.786 128.065 899.308 129.535 899.308 131.431V215.923C899.308 217.819 898.786 219.289 897.743 220.332C896.7 221.375 895.23 221.897 893.334 221.897C892.196 221.897 891.153 221.612 890.204 221.043C889.256 220.474 888.308 219.574 887.359 218.341L833.165 148.5V215.923C833.165 217.819 832.644 219.289 831.601 220.332C830.558 221.375 829.088 221.897 827.191 221.897C825.295 221.897 823.825 221.375 822.782 220.332C821.739 219.289 821.217 217.819 821.217 215.923V131.431C821.217 129.535 821.739 128.065 822.782 127.022C823.825 125.979 825.295 125.457 827.191 125.457C828.329 125.457 829.325 125.742 830.178 126.311C831.127 126.88 832.122 127.78 833.165 129.013L887.359 198.854V131.431C887.359 129.535 887.881 128.065 888.924 127.022C889.967 125.979 891.437 125.457 893.334 125.457Z" fill="white"/>
<path d="M935.983 221.897C934.086 221.897 932.616 221.375 931.573 220.332C930.53 219.289 930.009 217.819 930.009 215.923V131.431C930.009 129.535 930.53 128.065 931.573 127.022C932.616 125.979 934.086 125.457 935.983 125.457H970.263C982.685 125.457 991.789 128.397 997.573 134.276C1003.45 140.061 1006.39 149.164 1006.39 161.586V185.768C1006.39 198.19 1003.45 207.341 997.573 213.22C991.789 219.005 982.685 221.897 970.263 221.897H935.983ZM970.263 209.949C976.427 209.949 981.215 209.19 984.629 207.673C988.138 206.155 990.651 203.69 992.168 200.276C993.685 196.767 994.444 191.931 994.444 185.768V161.586C994.444 155.423 993.685 150.634 992.168 147.22C990.651 143.711 988.138 141.199 984.629 139.681C981.215 138.164 976.427 137.405 970.263 137.405H941.957V209.949H970.263Z" fill="white"/>
<path d="M747.793 108.951L809.3 226.727L716.368 238.051L747.793 108.951Z" fill="url(#paint0_linear_877_283)"/>
<rect x="68.2759" y="68.2759" width="193.448" height="22.7586" rx="11.3793" fill="url(#paint1_linear_877_283)"/>
<defs>
<linearGradient id="paint0_linear_877_283" x1="747.793" y1="108.951" x2="767.848" y2="273.535" gradientUnits="userSpaceOnUse">
<stop stop-color="#4452FE"/>
<stop offset="1" stop-color="#4452FE" stop-opacity="0"/>
</linearGradient>
<linearGradient id="paint1_linear_877_283" x1="51.2069" y1="56.8965" x2="295.862" y2="108.103" gradientUnits="userSpaceOnUse">
<stop stop-color="#02E4C0"/>
<stop offset="1" stop-color="#4452FE" stop-opacity="0"/>
</linearGradient>
</defs>
</svg>
